<svg width="26" height="25" viewBox="0 0 26 25" fill="none" xmlns="http://www.w3.org/2000/svg">
<path d="M4.9611 15.0773H2.48055C1.11249 15.0773 0 16.1898 0 17.5578V22.5189C0 23.887 1.11249 24.9995 2.48055 24.9995H4.9611C6.32915 24.9995 7.44164 23.887 7.44164 22.5189V17.5578C7.44164 16.1898 6.32915 15.0773 4.9611 15.0773Z" fill="#FCFCFE"/>
<path d="M14.2403 7.63579H11.7597C10.3917 7.63579 9.27917 8.74828 9.27917 10.1163V22.5191C9.27917 23.8871 10.3917 24.9996 11.7597 24.9996H14.2403C15.6083 24.9996 16.7208 23.8871 16.7208 22.5191V10.1163C16.7208 8.74828 15.6083 7.63579 14.2403 7.63579Z" fill="#FCFCFE"/>
<path d="M23.5194 0.194275H21.0389C19.6708 0.194275 18.5583 1.30677 18.5583 2.67482V22.5192C18.5583 23.8873 19.6708 24.9998 21.0389 24.9998H23.5194C24.8875 24.9998 26 23.8873 26 22.5192V2.67482C26 1.30677 24.8875 0.194275 23.5194 0.194275Z" fill="#FCFCFE"/>
</svg>
