<svg width="24" height="24" viewBox="0 0 24 24" fill="none" xmlns="http://www.w3.org/2000/svg">
<path d="M22.7754 7.92188H15.8438V0.990234C15.8438 0.442899 15.4009 0 14.8535 0H8.91211C8.36477 0 7.92188 0.442899 7.92188 0.990234V7.92188H0.990234C0.442899 7.92188 0 8.36477 0 8.91211V14.8535C0 15.4009 0.442899 15.8438 0.990234 15.8438H7.92188V22.7754C7.92188 23.3227 8.36477 23.7656 8.91211 23.7656H14.8535C15.4009 23.7656 15.8438 23.3227 15.8438 22.7754V15.8438H22.7754C23.3227 15.8438 23.7656 15.4009 23.7656 14.8535V8.91211C23.7656 8.36477 23.3227 7.92188 22.7754 7.92188Z" fill="url(#paint0_linear_15_1040)"/>
<defs>
<linearGradient id="paint0_linear_15_1040" x1="11.8828" y1="23.7656" x2="11.8828" y2="0" gradientUnits="userSpaceOnUse">
<stop stop-color="#F0F0F9"/>
<stop offset="1" stop-color="white"/>
</linearGradient>
</defs>
</svg>
