<svg width="24" height="25" viewBox="0 0 24 25" fill="none" xmlns="http://www.w3.org/2000/svg">
<path d="M22.5803 13.8589L20.8099 13.8618V22.9329C20.8099 23.7096 20.1804 24.3391 19.4036 24.3391H14.6276V18.9129C14.6276 17.4589 13.4492 16.28 11.9947 16.28C11.2677 16.28 10.6096 16.5748 10.1328 17.0511C9.6566 17.5278 9.36176 18.1859 9.36176 18.9129V24.3391H4.58616C3.80945 24.3391 3.17993 23.7096 3.17993 22.9329V13.8903L1.42495 13.8932C0.159345 13.895 -0.475802 12.3651 0.419028 11.4702L10.1774 1.71188C11.1936 0.695648 12.8412 0.695648 13.8575 1.71188L23.5816 11.436C24.475 12.3294 23.8436 13.8566 22.5803 13.8589Z" fill="white"/>
</svg>
