<svg width="22" height="23" viewBox="0 0 22 23" fill="none" xmlns="http://www.w3.org/2000/svg">
<path d="M10.9993 11.2256C14.0991 11.2256 16.6121 8.71262 16.6121 5.61283C16.6121 2.51298 14.0991 6.10352e-05 10.9993 6.10352e-05C7.89946 6.10352e-05 5.38654 2.51298 5.38654 5.61283C5.38654 8.71262 7.89946 11.2256 10.9993 11.2256Z" fill="white"/>
<path d="M10.9994 12.6287C8.18704 12.6287 5.7469 13.7586 3.88338 15.241C2.02823 16.7169 0.69548 18.5805 0.110026 20.1383C-0.121528 20.7543 0.0252594 21.363 0.397765 21.7966C0.756687 22.2142 1.30331 22.4511 1.87868 22.4511H20.1202C20.6955 22.4511 21.2422 22.2142 21.6011 21.7966C21.9736 21.363 22.1204 20.7543 21.8889 20.1383C21.3033 18.5805 19.9706 16.7169 18.1154 15.241C16.252 13.7586 13.8118 12.6287 10.9994 12.6287Z" fill="white"/>
</svg>
