<svg width="23" height="13" viewBox="0 0 23 13" fill="none" xmlns="http://www.w3.org/2000/svg">
<path d="M13.2749 0.0472837C12.5899 -0.142981 11.8804 0.25806 11.69 0.943081L8.82928 11.2416C8.63902 11.9266 9.04006 12.6362 9.72508 12.8264C9.84034 12.8584 9.95628 12.8737 10.0703 12.8737C10.6342 12.8737 11.1517 12.5004 11.3099 11.9306L14.1707 1.63214C14.3609 0.947201 13.9599 0.237548 13.2749 0.0472837Z" fill="white"/>
<path d="M6.40146 0.297922C5.85478 -0.156756 5.04309 -0.0820926 4.58858 0.464586L0.297541 5.62482C-0.0998089 6.10267 -0.0991223 6.7961 0.299258 7.27309L4.5903 12.4114C4.84493 12.7163 5.2107 12.8736 5.57904 12.8736C5.87006 12.8736 6.1627 12.7754 6.40352 12.5743C6.94925 12.1186 7.0222 11.3068 6.56649 10.7611L2.96313 6.44629L6.56821 2.11089C7.02271 1.56412 6.94805 0.752429 6.40146 0.297922Z" fill="white"/>
<path d="M22.7007 5.60083L18.4097 0.46265C17.954 -0.0830847 17.1421 -0.155947 16.5965 0.299762C16.0507 0.75547 15.9779 1.56733 16.4336 2.11298L20.0369 6.42779L16.4319 10.7632C15.9773 11.3099 16.0519 12.1216 16.5985 12.5761C16.839 12.7761 17.1308 12.8736 17.4209 12.8736C17.7902 12.8736 18.1569 12.7155 18.4114 12.4093L22.7024 7.2491C23.0998 6.77116 23.0991 6.07773 22.7007 5.60083Z" fill="white"/>
</svg>
