<svg width="22" height="26" viewBox="0 0 22 26" fill="none" xmlns="http://www.w3.org/2000/svg">
<path d="M0 19.6764C1.65988 12.4493 5.20643 5.77318 10.2896 0.306956C10.3799 0.210204 10.4898 0.132963 10.612 0.0801246C10.7343 0.0272858 10.8665 0 11 0C11.1335 0 11.2656 0.0272858 11.3879 0.0801246C11.5102 0.132963 11.6201 0.210204 11.7104 0.306956C11.9106 0.52059 12.0771 0.700992 12.2086 0.846975C17.0289 6.21379 20.3966 12.6899 22 19.6764C19.4177 20.2117 16.7654 20.563 14.0588 20.7137L11.5392 25.6724C11.489 25.7708 11.412 25.8537 11.3167 25.9115C11.2216 25.9694 11.1119 26 11 26C10.8881 26 10.7784 25.9694 10.6832 25.9115C10.588 25.8537 10.511 25.7708 10.4609 25.6724L7.94122 20.7137C5.27138 20.5653 2.61675 20.2185 0 19.6764ZM11 16.0518C11.9596 16.0518 12.88 15.6766 13.5586 15.0089C14.2372 14.3412 14.6184 13.4356 14.6184 12.4912C14.6184 11.547 14.2372 10.6413 13.5586 9.97351C12.88 9.30578 11.9596 8.93065 11 8.93065C10.0403 8.93065 9.12 9.30578 8.44138 9.97351C7.76279 10.6413 7.38157 11.547 7.38157 12.4912C7.38157 13.4356 7.76279 14.3412 8.44138 15.0089C9.12 15.6766 10.0403 16.0518 11 16.0518Z" fill="white"/>
</svg>
