<svg width="19" height="19" viewBox="0 0 19 19" fill="none" xmlns="http://www.w3.org/2000/svg">
<path d="M19 8.49999V18.5001C19 18.7 18.88 18.8901 18.6899 18.96C18.6299 18.99 18.56 19 18.5 19C18.37 19 18.2399 18.9502 18.14 18.8501L16.33 17.0001H7.49995C5.57 17.0001 4 15.43 4 13.5H11.5C14.26 13.5 16.4999 11.26 16.4999 8.49999V5.14991C17.9399 5.57991 19 6.92005 19 8.49999ZM14.9999 8.49999V3.50001C14.9999 1.57001 13.43 0 11.5 0H3.5C1.57 0 0 1.57001 0 3.50001V13.5C0 13.7001 0.12 13.89 0.310006 13.96C0.370006 13.99 0.440003 14.0001 0.500003 14.0001C0.629999 14.0001 0.759996 13.9501 0.859993 13.8502L2.67001 12H11.5C13.43 12 14.9999 10.4301 14.9999 8.49999Z" fill="white"/>
</svg>
