<svg width="18" height="22" viewBox="0 0 18 22" fill="none" xmlns="http://www.w3.org/2000/svg">
<path d="M11.9188 6.98324C11.2156 6.98324 10.6643 7.53453 10.6643 8.2377V11.3738C10.6643 12.4114 9.82023 13.2555 8.78262 13.2555C7.74502 13.2555 6.90094 12.4114 6.90094 11.3738V8.2377C6.90094 7.53453 6.34965 6.98324 5.64648 6.98324C4.94332 6.98324 4.39203 7.53453 4.39203 8.2377V11.3738C4.39203 13.7946 6.3619 15.7644 8.78262 15.7644C11.2033 15.7644 13.1732 13.7946 13.1732 11.3738V8.2377C13.1732 7.53453 12.6219 6.98324 11.9188 6.98324ZM5.64648 6.35601C5.99317 6.35601 6.27371 6.07548 6.27371 5.72879V3.76347C6.27371 2.37977 7.39954 1.25456 8.78262 1.25456C10.1657 1.25456 11.2915 2.37977 11.2915 3.76347V5.72879C11.2915 6.07548 11.5721 6.35601 11.9188 6.35601C12.2655 6.35601 12.546 6.07548 12.546 5.72879V3.76347C12.546 1.68823 10.8579 0.000106812 8.78262 0.000106812C6.70738 0.000106812 5.01926 1.68823 5.01926 3.76347V5.72879C5.01926 6.07548 5.29979 6.35601 5.64648 6.35601Z" fill="white"/>
<path d="M17.5638 20.7321L16.3094 5.67859C16.2843 5.35247 16.0083 5.10158 15.6822 5.10158H1.88314C1.55699 5.10158 1.28105 5.35247 1.25592 5.67859L0.00146165 20.7321C-0.0110829 20.9077 0.0515981 21.0833 0.164541 21.2087C0.289945 21.3342 0.453066 21.4095 0.628689 21.4095H16.9366C17.1122 21.4095 17.2754 21.3342 17.4008 21.2087C17.5137 21.0833 17.5764 20.9077 17.5638 20.7321ZM12.546 11.3739C12.546 13.4437 10.8525 15.1372 8.78265 15.1372C6.71276 15.1372 5.01928 13.4437 5.01928 11.3739V8.23772C5.01928 7.88643 5.29522 7.61049 5.64651 7.61049C5.9978 7.61049 6.27374 7.88643 6.27374 8.23772V11.3739C6.27374 12.7537 7.40279 13.8828 8.78265 13.8828C10.1625 13.8828 11.2916 12.7537 11.2916 11.3739V8.23772C11.2916 7.88643 11.5675 7.61049 11.9188 7.61049C12.2701 7.61049 12.546 7.88643 12.546 8.23772V11.3739Z" fill="white"/>
</svg>
