<svg width="18" height="14" viewBox="0 0 18 14" fill="none" xmlns="http://www.w3.org/2000/svg">
<path d="M17.6291 1.88436C17.5272 1.52071 17.3286 1.19147 17.0545 0.931662C16.7726 0.663859 16.4272 0.472294 16.0508 0.375047C14.642 0.00371984 8.99782 0.00371993 8.99782 0.00371993C6.64483 -0.0230511 4.29242 0.0946946 1.95387 0.356293C1.57743 0.460724 1.23264 0.65657 0.950159 0.926411C0.672602 1.19347 0.47156 1.52278 0.366539 1.88361C0.114256 3.2427 -0.00831982 4.62268 0.000462985 6.00496C-0.00853888 7.386 0.113736 8.76553 0.366539 10.1263C0.46931 10.4856 0.669601 10.8135 0.947909 11.0783C1.22622 11.3431 1.57279 11.5344 1.95387 11.6356C3.38141 12.0062 8.99782 12.0062 8.99782 12.0062C11.3538 12.033 13.7092 11.9153 16.0508 11.6536C16.4272 11.5564 16.7726 11.3648 17.0545 11.097C17.3285 10.8373 17.5268 10.508 17.6284 10.1443C17.8872 8.78575 18.0131 7.40519 18.0042 6.02221C18.0237 4.63338 17.8979 3.24706 17.6291 1.88436ZM7.20345 8.57349V3.43718L11.8994 6.00571L7.20345 8.57349Z" fill="#FAFAFD"/>
</svg>
