<svg width="159" height="38" viewBox="0 0 159 38" fill="none" xmlns="http://www.w3.org/2000/svg">
<path d="M60.046 20.2779C60.046 21.6157 59.4164 22.8749 57.8163 23.6094C59.8362 24.2127 60.5707 26.3638 60.5707 27.4394C60.5707 31.2693 57.6851 32.5022 54.1175 32.5022C51.3893 32.5022 48.6873 32.5022 45.9592 32.5022V15.2937C48.6611 15.2937 51.3893 15.2937 54.1175 15.2937C57.5277 15.2937 60.046 16.8152 60.046 20.2779ZM49.1595 22.1929H54.1175C56.1636 22.1929 56.8194 21.3272 56.8194 20.3566C56.8194 19.5696 56.1898 18.2317 54.1175 18.2317H49.1595V22.1929ZM49.1595 29.4855H54.1175C55.4553 29.4855 57.3441 29.0395 57.3441 27.4131C57.3441 25.8654 55.4553 25.0522 54.1175 25.0522H49.1595V29.4855Z" fill="white"/>
<path d="M74.6838 26.4424C74.6838 29.9313 72.2966 32.7644 68.3618 32.7644C64.4269 32.7644 62.0659 29.9313 62.0659 26.4424C62.0659 22.9797 64.4793 20.1204 68.3355 20.1204C72.1917 20.1204 74.6838 22.9797 74.6838 26.4424ZM65.0565 26.4424C65.0565 28.2787 66.1582 30.01 68.3618 30.01C70.539 30.01 71.667 28.2787 71.667 26.4424C71.667 24.6323 70.3817 22.8485 68.3618 22.8485C66.1845 22.8485 65.0565 24.6323 65.0565 26.4424Z" fill="white"/>
<path d="M80.7173 16.9463V20.3827H84.0488V22.9535H80.691V28.2C80.691 29.3543 81.3206 29.9314 82.265 29.9314C82.7372 29.9314 83.2618 29.774 83.7078 29.5641L84.5472 32.1087C83.6815 32.4497 82.9732 32.6071 82.0551 32.6333C79.4319 32.7383 77.7005 31.243 77.7005 28.2V22.9535H75.4445V20.3827H77.7005V17.2611L80.7173 16.9463Z" fill="white"/>
<path d="M100.523 20.2779C100.523 21.6157 99.8932 22.8749 98.293 23.6094C100.313 24.2127 101.047 26.3638 101.047 27.4394C101.047 31.2693 98.1619 32.5022 94.5942 32.5022C91.8661 32.5022 89.1641 32.5022 86.4359 32.5022V15.2937C89.1379 15.2937 91.8661 15.2937 94.5942 15.2937C97.9782 15.2937 100.523 16.8152 100.523 20.2779ZM89.6363 22.1929H94.5942C96.6404 22.1929 97.2962 21.3272 97.2962 20.3566C97.2962 19.5696 96.6666 18.2317 94.5942 18.2317H89.6363V22.1929ZM89.6363 29.4855H94.5942C95.9321 29.4855 97.8209 29.0395 97.8209 27.4131C97.8209 25.8654 95.9321 25.0522 94.5942 25.0522H89.6363V29.4855Z" fill="white"/>
<path d="M105.874 20.383L106.084 21.7733C107.029 20.2781 108.261 20.042 109.494 20.042C110.754 20.042 111.96 20.5404 112.616 21.1962L111.252 23.7932C110.649 23.2686 110.072 23.0063 109.101 23.0063C107.527 23.0063 106.084 23.8457 106.084 26.0755V32.4762H103.094V20.3568H105.874V20.383Z" fill="white"/>
<path d="M123.371 20.3828H126.257V32.5022H123.424L123.266 30.7446C122.584 32.1612 120.696 32.8695 119.332 32.8957C115.738 32.9219 113.088 30.7184 113.088 26.4425C113.088 22.2715 115.869 20.068 119.41 20.0942C121.037 20.0942 122.584 20.855 123.266 22.0617L123.371 20.3828ZM116.105 26.4163C116.105 28.7247 117.705 30.115 119.699 30.115C124.421 30.115 124.421 22.7699 119.699 22.7699C117.705 22.7699 116.105 24.1078 116.105 26.4163Z" fill="white"/>
<path d="M132.054 16.9463C132.054 19.281 128.513 19.281 128.513 16.9463C128.513 14.6116 132.054 14.6116 132.054 16.9463Z" fill="white"/>
<path d="M131.792 20.3303H128.802V32.5022H131.792V20.3303Z" fill="white"/>
<path d="M143.413 32.5024V26.1541C143.413 24.3178 142.416 22.9013 140.475 22.9013C138.639 22.9013 137.379 24.449 137.379 26.2853V32.4761H134.415V20.3305H137.091L137.275 21.9831C138.507 20.7764 139.74 20.1731 141.262 20.1731C144.121 20.1731 146.403 22.3242 146.403 26.1279V32.5024H143.413Z" fill="white"/>
<path d="M158.392 20.3829V21.7995L152.804 29.5381H158.444V32.4761H148.24V31.2169L154.037 23.0849H148.686V20.3567H158.392V20.3829Z" fill="white"/>
<path d="M35.0466 14.6902V26.0489C35.0466 29.3804 32.3447 32.0823 29.0132 32.0823H11.7784C8.44687 32.0823 5.74492 29.3804 5.74492 26.0489V14.6902H0V26.0489C0 32.5283 5.27273 37.8273 11.7784 37.8273H29.0132C35.4926 37.8273 40.7915 32.5545 40.7915 26.0489V14.6902H35.0466Z" fill="white"/>
<path d="M13.7721 26.3898C15.6266 26.3898 17.1299 24.8865 17.1299 23.0321C17.1299 21.1776 15.6266 19.6743 13.7721 19.6743C11.9177 19.6743 10.4144 21.1776 10.4144 23.0321C10.4144 24.8865 11.9177 26.3898 13.7721 26.3898Z" fill="white"/>
<path d="M26.9671 26.3898C28.8215 26.3898 30.3248 24.8865 30.3248 23.0321C30.3248 21.1776 28.8215 19.6743 26.9671 19.6743C25.1126 19.6743 23.6093 21.1776 23.6093 23.0321C23.6093 24.8865 25.1126 26.3898 26.9671 26.3898Z" fill="white"/>
<path d="M16.579 12.6968H14.9001C14.9001 9.96863 16.9725 7.71263 19.6219 7.42407V0.0527344C17.8906 0.131432 16.238 0.524923 14.7427 1.1545C13.5622 1.65292 12.8015 2.80715 12.8015 4.09254V4.11877C12.8015 4.93198 13.3786 5.64026 14.1656 5.74519C15.1362 5.87635 15.9494 5.11561 15.9494 4.17124V3.48919H17.6283V4.0663C17.6283 5.82388 16.2904 7.31914 14.5328 7.39784C12.6703 7.50277 11.1226 6.00752 11.1226 4.14501V3.27933C10.0209 4.17124 9.07648 5.19431 8.26328 6.34854C7.84356 6.95188 8.00095 7.79132 8.63053 8.15858C10.1258 9.10295 11.1489 10.7556 11.1489 12.6443V12.8017H9.46997V12.6443C9.46997 11.595 9.02402 10.6507 8.31574 9.99485C7.6337 9.33904 6.5057 9.68007 6.24337 10.572C5.87612 11.8311 5.66626 13.1428 5.66626 14.5068H17.7594C18.7825 14.5068 19.6219 13.6674 19.6219 12.6443V9.07672C17.8906 9.39151 16.579 10.8868 16.579 12.6968Z" fill="white"/>
<path d="M26.2064 12.8017H24.5275C24.5275 10.9392 23.1109 9.39148 21.2746 9.20786V12.6968C21.2746 13.7199 22.1141 14.5593 23.1372 14.5593H35.0205C34.9942 13.1427 34.7844 11.7524 34.3909 10.4408C34.1286 9.57511 33.0793 9.23409 32.3972 9.78497C31.584 10.4408 31.0594 11.4639 31.0594 12.5918V12.7492H29.3805V12.5918C29.3805 10.6769 30.4036 8.998 31.925 8.05363C32.5546 7.66014 32.7645 6.84693 32.3185 6.24359C31.6365 5.27298 30.8233 4.38108 29.9314 3.5941V4.11875C29.9314 5.87633 28.5935 7.37159 26.8359 7.45028C24.9734 7.55521 23.4257 6.05995 23.4257 4.19745V3.51541H25.1046V4.14499C25.1046 4.95819 25.6817 5.66647 26.4687 5.7714C27.4393 5.90256 28.2525 5.14182 28.2525 4.19745C28.2525 2.96452 27.5442 1.81029 26.39 1.28564C24.816 0.551133 23.0585 0.105174 21.2484 0.000244141V7.45028C24.0291 7.71261 26.2064 10.0211 26.2064 12.8017Z" fill="white"/>
</svg>
